<?xml version="1.0" encoding="UTF-8" standalone="no"?>
<!DOCTYPE svg PUBLIC "-//W3C//DTD SVG 1.1//EN"
 "http://www.w3.org/Graphics/SVG/1.1/DTD/svg11.dtd">
<!-- Generated by graphviz version 2.36.0 (20140111.2315)
 -->
<!-- Title: models_diagram Pages: 1 -->
<svg width="422pt" height="158pt"
 viewBox="0.00 0.00 422.00 158.00" xmlns="http://www.w3.org/2000/svg" xmlns:xlink="http://www.w3.org/1999/xlink">
<g id="graph0" class="graph" transform="scale(1 1) rotate(0) translate(4 154)">
<title>models_diagram</title>
<polygon fill="none" stroke="none" points="-4,4 -4,-154 418,-154 418,4 -4,4"/>
<!-- _diagram_info -->
<g id="node1" class="node"><title>_diagram_info</title>
<text text-anchor="start" x="7" y="-135.6" font-family="Times,serif" font-size="13.00">Models diagram</text>
<text text-anchor="start" x="7" y="-121.6" font-family="Times,serif" font-size="13.00">Date: Apr 08 2016 &#45; 20:13</text>
<text text-anchor="start" x="7" y="-107.6" font-family="Times,serif" font-size="13.00">Migration version: 20160408223942</text>
<text text-anchor="start" x="7" y="-93.6" font-family="Times,serif" font-size="13.00">Generated by RailRoady 1.4.2</text>
<text text-anchor="start" x="7" y="-79.6" font-family="Times,serif" font-size="13.00">http://railroady.prestonlee.com</text>
</g>
<!-- Worker -->
<g id="node2" class="node"><title>Worker</title>
<ellipse fill="none" stroke="black" cx="269" cy="-111" rx="38.0212" ry="18"/>
<text text-anchor="middle" x="269" y="-107.3" font-family="Times,serif" font-size="14.00">Worker</text>
</g>
<!-- Operation -->
<g id="node4" class="node"><title>Operation</title>
<ellipse fill="none" stroke="black" cx="269" cy="-18" rx="46.2191" ry="18"/>
<text text-anchor="middle" x="269" y="-14.3" font-family="Times,serif" font-size="14.00">Operation</text>
</g>
<!-- Worker&#45;&gt;Operation -->
<g id="edge1" class="edge"><title>Worker&#45;&gt;Operation</title>
<path fill="none" stroke="#927f05" d="M269,-84.7285C269,-72.7246 269,-58.3622 269,-46.1291"/>
<ellipse fill="none" stroke="#927f05" cx="269" cy="-88.8836" rx="4" ry="4"/>
<polygon fill="#927f05" stroke="#927f05" points="269,-46.0397 273.5,-36.0396 269,-41.0397 269,-36.0397 269,-36.0397 269,-36.0397 269,-41.0397 264.5,-36.0397 269,-46.0397 269,-46.0397"/>
</g>
<!-- Inventory -->
<g id="node3" class="node"><title>Inventory</title>
<ellipse fill="none" stroke="black" cx="370" cy="-111" rx="44.271" ry="18"/>
<text text-anchor="middle" x="370" y="-107.3" font-family="Times,serif" font-size="14.00">Inventory</text>
</g>
</g>
</svg>
