<?xml version="1.0" encoding="UTF-8" standalone="no"?>
<!DOCTYPE svg PUBLIC "-//W3C//DTD SVG 1.1//EN"
 "http://www.w3.org/Graphics/SVG/1.1/DTD/svg11.dtd">
<!-- Generated by graphviz version 2.36.0 (20140111.2315)
 -->
<!-- Title: models_diagram Pages: 1 -->
<svg width="745pt" height="202pt"
 viewBox="0.00 0.00 745.00 202.00" xmlns="http://www.w3.org/2000/svg" xmlns:xlink="http://www.w3.org/1999/xlink">
<g id="graph0" class="graph" transform="scale(1 1) rotate(0) translate(4 198)">
<title>models_diagram</title>
<polygon fill="none" stroke="none" points="-4,4 -4,-198 741,-198 741,4 -4,4"/>
<!-- _diagram_info -->
<g id="node1" class="node"><title>_diagram_info</title>
<text text-anchor="start" x="7" y="-157.6" font-family="Times,serif" font-size="13.00">Models diagram</text>
<text text-anchor="start" x="7" y="-143.6" font-family="Times,serif" font-size="13.00">Date: Apr 08 2016 &#45; 20:13</text>
<text text-anchor="start" x="7" y="-129.6" font-family="Times,serif" font-size="13.00">Migration version: 20160408223942</text>
<text text-anchor="start" x="7" y="-115.6" font-family="Times,serif" font-size="13.00">Generated by RailRoady 1.4.2</text>
<text text-anchor="start" x="7" y="-101.6" font-family="Times,serif" font-size="13.00">http://railroady.prestonlee.com</text>
</g>
<!-- Worker -->
<g id="node2" class="node"><title>Worker</title>
<path fill="none" stroke="black" d="M243,-80C243,-80 463,-80 463,-80 469,-80 475,-86 475,-92 475,-92 475,-174 475,-174 475,-180 469,-186 463,-186 463,-186 243,-186 243,-186 237,-186 231,-180 231,-174 231,-174 231,-92 231,-92 231,-86 237,-80 243,-80"/>
<text text-anchor="middle" x="353" y="-170.8" font-family="Times,serif" font-size="14.00">Worker</text>
<polyline fill="none" stroke="black" points="231,-163 475,-163 "/>
<text text-anchor="start" x="239" y="-147.8" font-family="Times,serif" font-size="14.00">id :integer</text>
<text text-anchor="start" x="239" y="-132.8" font-family="Times,serif" font-size="14.00">name :character varying</text>
<text text-anchor="start" x="239" y="-117.8" font-family="Times,serif" font-size="14.00">email :character varying</text>
<text text-anchor="start" x="239" y="-102.8" font-family="Times,serif" font-size="14.00">created_at :timestamp without time zone</text>
<text text-anchor="start" x="239" y="-87.8" font-family="Times,serif" font-size="14.00">updated_at :timestamp without time zone</text>
</g>
<!-- Operation -->
<g id="node4" class="node"><title>Operation</title>
<ellipse fill="none" stroke="black" cx="353" cy="-18" rx="46.2191" ry="18"/>
<text text-anchor="middle" x="353" y="-14.3" font-family="Times,serif" font-size="14.00">Operation</text>
</g>
<!-- Worker&#45;&gt;Operation -->
<g id="edge1" class="edge"><title>Worker&#45;&gt;Operation</title>
<path fill="none" stroke="#dc29d8" d="M353,-71.6749C353,-62.8167 353,-54.0844 353,-46.3544"/>
<ellipse fill="none" stroke="#dc29d8" cx="353" cy="-75.8" rx="4" ry="4"/>
<polygon fill="#dc29d8" stroke="#dc29d8" points="353,-46.1853 357.5,-36.1853 353,-41.1853 353,-36.1853 353,-36.1853 353,-36.1853 353,-41.1853 348.5,-36.1854 353,-46.1853 353,-46.1853"/>
</g>
<!-- Inventory -->
<g id="node3" class="node"><title>Inventory</title>
<path fill="none" stroke="black" d="M505,-72.5C505,-72.5 725,-72.5 725,-72.5 731,-72.5 737,-78.5 737,-84.5 737,-84.5 737,-181.5 737,-181.5 737,-187.5 731,-193.5 725,-193.5 725,-193.5 505,-193.5 505,-193.5 499,-193.5 493,-187.5 493,-181.5 493,-181.5 493,-84.5 493,-84.5 493,-78.5 499,-72.5 505,-72.5"/>
<text text-anchor="middle" x="615" y="-178.3" font-family="Times,serif" font-size="14.00">Inventory</text>
<polyline fill="none" stroke="black" points="493,-170.5 737,-170.5 "/>
<text text-anchor="start" x="501" y="-155.3" font-family="Times,serif" font-size="14.00">id :integer</text>
<text text-anchor="start" x="501" y="-140.3" font-family="Times,serif" font-size="14.00">serial_number :integer</text>
<text text-anchor="start" x="501" y="-125.3" font-family="Times,serif" font-size="14.00">size :integer</text>
<text text-anchor="start" x="501" y="-110.3" font-family="Times,serif" font-size="14.00">description :character varying</text>
<text text-anchor="start" x="501" y="-95.3" font-family="Times,serif" font-size="14.00">created_at :timestamp without time zone</text>
<text text-anchor="start" x="501" y="-80.3" font-family="Times,serif" font-size="14.00">updated_at :timestamp without time zone</text>
</g>
</g>
</svg>
